# xmcd
#
# Track frame offsets:
# 150
# 11105
# 29313
# 40535
# 55198
# 73105
# 87310
# 101870
# 114260
# 132953
# 146965
# 165775
#
# Disc length: 2477 seconds
#
#
# Revision: 5
# Processed by: cddbd v1.4PL0 Copyright (c) Steve Scherf et al.
# Submitted via: FreeRIP 2.40 
#
DISCID=9d09ab0c
DTITLE=Lyle Lovett - Lyle Lovett And His Large Band
DYEAR=1988
DGENRE=Country
TTITLE0=The Blues Walk
TTITLE1=Here I Am
TTITLE2=Cryin' Shame
TTITLE3=Good Intentions
TTITLE4=I Know You Know
TTITLE5=What Do You Do/The Glory Of Love
TTITLE6=I Married Her Just Because She Looks Like You
TTITLE7=Stand By Your Man
TTITLE8=Which Way Does That Old Pony Run
TTITLE9=Nobody Knows Me
TTITLE10=If You Were To Wake Up
TTITLE11=Once Is Enough
EXTD=Curb MCAD-42263
EXTT0=
EXTT1=
EXTT2=
EXTT3=
EXTT4=
EXTT5=
EXTT6=
EXTT7=
EXTT8=
EXTT9=
EXTT10=
EXTT11=
PLAYORDER=
